<svg display="none" xmlns="http://www.w3.org/2000/svg">
  <symbol id="search" viewBox="0 0 16 16">
    <path
      d="M6.66671 12c1.18332-.0002 2.33253-.3964 3.26466-1.1253l2.93063 2.9306.9427-.9426L10.874 9.932c.7294-.93223 1.1258-2.08171 1.126-3.26534C12 3.726 9.60737 1.33333 6.66671 1.33333c-2.94067 0-5.33334 2.39267-5.33334 5.33333C1.33337 9.60733 3.72604 12 6.66671 12zm0-9.33334c2.206 0 3.99999 1.794 3.99999 4S8.87271 10.6667 6.66671 10.6667s-4-1.79404-4-4.00004c0-2.206 1.794-4 4-4z"
    />
  </symbol>
  <symbol id="user" viewBox="0 0 13 14">
    <path
      d="M6.49996 2.33333c1.19708 0 2.16667 1.04417 2.16667 2.33333C8.66663 5.95583 7.69704 7 6.49996 7S4.33329 5.95583 4.33329 4.66666c0-1.28916.96959-2.33333 2.16667-2.33333zm0 9.33337s4.33334 0 4.33334-1.1667c0-1.4-2.11251-2.91667-4.33334-2.91667S2.16663 9.1 2.16663 10.5c0 1.1667 4.33333 1.1667 4.33333 1.1667z"
    />
  </symbol>
  <symbol id="compare" viewBox="0 0 14 14">
    <path
      d="M2.91675 5.36667h1.75v5.71663h-1.75V5.36667zm3.26667-2.45h1.63333v8.16663H6.18342V2.91667zm3.26666 4.66667h1.63332v3.49996H9.45008V7.58334z" 
    />
  </symbol>
  <symbol id="trush" viewBox="0 0 10 10">
    <g clip-path="url(#clip0)">
      <path
        d="M9.86215 2.5217c-.06937-.08179-.16874-.12854-.27288-.12854H7.65774V3.4188c0 .47128-.40415.8547-.9009.8547-.49676 0-.90091-.38342-.90091-.8547V2.39316h-1.8018V3.4188c0 .47128-.40414.8547-.9009.8547-.49675 0-.9009-.38342-.9009-.8547V2.39316H.32089c-.104234 0-.203604.04675-.2729731.12854-.0694594.0818-.1023423.19086-.0904504.29975L.605665 8.78461c.012072.67231.536125 1.21538 1.178645 1.21538h6.34153c.64244 0 1.16649-.54307 1.17865-1.21547l.6482-5.96316c.0118-.1088-.02108-.21786-.09054-.29966z" />
      <path
          d="M3.15333 3.76068c.19874 0 .36036-.15333.36036-.34188V1.53846c0-.52795.56117-.854699 1.08108-.854699h.9009c.54721 0 .9009.335469.9009.854699V3.4188c0 .18855.16172.34188.36036.34188.19865 0 .36036-.15333.36036-.34188V1.53846C7.11729.647009 6.43531 0 5.49567 0h-.9009c-.99351 0-1.8018.690171-1.8018 1.53846V3.4188c0 .18855.16162.34188.36036.34188z" />
    </g>
    <defs>
      <clipPath id="clip0">
        <path d="M0 0h10v10H0z" />
      </clipPath>
    </defs>
  </symbol>
  <symbol id="plus" viewBox="0 0 22 22">
    <path 
      d="M18.7 9.9v2.2h-6.6v6.6H9.90005v-6.6h-6.6V9.9h6.6V3.3H12.1v6.6h6.6z" 
      fill="#000"
      fill-opacity="0.3" 
    />
  </symbol>
</svg>