<svg display="none" xmlns="http://www.w3.org/2000/svg">
  <symbol id="facebook" viewBox="0 0 32 32">
    <path
        d="M31.9973 16c0-8.83733-7.1626-16-15.9986-16C7.16267 0 0 7.16267 0 16c0 7.984 5.85067 14.6027 13.4987 15.8027V20.624H9.43733v-4.6253h4.06137v-3.524c0-4.0107 2.3893-6.22537 6.0426-6.22537 1.7507 0 3.5814.312 3.5814.312v3.93737h-2.016c-1.9867 0-2.6067 1.2333-2.6067 2.4986V16h4.4373l-.7093 4.6253H18.5V31.804c7.648-1.2 13.4987-7.8187 13.4987-15.804h-.0014z"
        fill="#fff" 
        fill-opacity=".6" 
      />
  </symbol>
  <symbol id="instagram" viewBox="0 0 32 32">
    <path 
      d="M20.7999 16.0001c0 1.2731-.5057 2.494-1.4058 3.3942a4.80031 4.80031 0 01-6.7883 0c-.9001-.9002-1.4059-2.1211-1.4059-3.3942 0-.2736.0288-.5408.0784-.8H9.59995v6.3952c0 .4448.36.8048.80475.8048h11.192a.80507.80507 0 00.5681-.2362.80485.80485 0 00.2351-.5686v-6.3952h-1.6784c.0496.2592.0784.5264.0784.8zm-4.8 3.2c.4204-.0001.8366-.083 1.2249-.2439a3.20079 3.20079 0 001.7318-1.7327c.1608-.3884.2435-.8046.2433-1.225a3.20161 3.20161 0 00-.2439-1.2248 3.20079 3.20079 0 00-.6941-1.0382 3.19895 3.19895 0 00-1.0386-.6936 3.20023 3.20023 0 00-1.225-.2434 3.20067 3.20067 0 00-2.263.9381 3.20087 3.20087 0 00-.937 2.2635c.0003.8489.3377 1.663.9381 2.2631a3.20078 3.20078 0 002.2635.9369zm3.84-6.56h1.9184c.1275 0 .2498-.0505.34-.1405a.48113.48113 0 00.1416-.3395v-1.9184a.4816.4816 0 00-.141-.34051.4816.4816 0 00-.3406-.14105h-1.9184a.4817.4817 0 00-.4816.48156v1.9184c.0016.264.2176.48.4816.48zM15.9999.64014c-4.0737 0-7.98056 1.61828-10.86111 4.49884C2.25823 8.01954.63995 11.9264.63995 16.0001c0 4.0738 1.61828 7.9806 4.49884 10.8612 2.88055 2.8806 6.78741 4.4988 10.86111 4.4988 2.0172 0 4.0145-.3973 5.8781-1.1692a15.36023 15.36023 0 004.9831-3.3296 15.36023 15.36023 0 003.3296-4.9831 15.3603 15.3603 0 000-11.7561A15.3599 15.3599 0 0015.9999.64014zm8 21.58236c0 .9776-.8 1.7776-1.7776 1.7776H9.77755c-.9776 0-1.7776-.8-1.7776-1.7776V9.77774c0-.9776.8-1.7776 1.7776-1.7776H22.2223c.9776 0 1.7776.8 1.7776 1.7776V22.2225z" 
      fill="#fff" 
      fill-opacity=".6" 
    />
  </symbol>
  <symbol id="twitter" viewBox="0 0 32 32">
    <path 
      d="M16 32c-2.1667 0-4.2396-.4219-6.21875-1.2656-1.97917-.8438-3.68229-1.9792-5.10937-3.4063-1.42709-1.4271-2.5625-3.1302-3.40626-5.1093C.42188 20.2396 0 18.1667 0 16c0-2.1667.42188-4.2396 1.26562-6.21875.84376-1.97917 1.97917-3.68229 3.40626-5.10937 1.42708-1.42709 3.1302-2.5625 5.10937-3.40626C11.7604.42188 13.8333 0 16 0c2.1667 0 4.2396.42188 6.2188 1.26562 1.9791.84376 3.6822 1.97917 5.1093 3.40626 1.4271 1.42708 2.5625 3.1302 3.4063 5.10937C31.5781 11.7604 32 13.8333 32 16c0 2.1667-.4219 4.2396-1.2656 6.2188-.8438 1.9791-1.9792 3.6822-3.4063 5.1093-1.4271 1.4271-3.1302 2.5625-5.1093 3.4063C20.2396 31.5781 18.1667 32 16 32zm9.4062-24c-.125.0625-.3124.17708-.5624.34375l-.6094.40625-.5782.3125L23 9.28125C22.2292 8.42708 21.2812 8 20.1562 8 17.7188 8 16.5 9.02083 16.5 11.0625v1.8437c-3.3542-.1666-5.9271-1.3958-7.71875-3.68745C8.26042 9.76042 8 10.3542 8 11c0 1.375.51042 2.4167 1.53125 3.125-.125 0-.30208.0104-.53125.0312-.22917.0209-.41146.0209-.54688 0C8.31771 14.1354 8.16667 14.0833 8 14c0 .9583.25521 1.7552.76562 2.3906.51042.6354 1.21355 1.0469 2.10938 1.2344-.2083.25-.5.375-.875.375-.33333 0-.625-.0938-.875-.2812 0 .8124.39062 1.4427 1.1719 1.8906.7812.4479 1.6614.6823 2.6406.7031-.375.5625-.9219.9844-1.6406 1.2656C10.5781 21.8594 9.8125 22 9 22c-.29167 0-.69271-.0729-1.20312-.2188-.51042-.1458-.77605-.2187-.79688-.2187.33333.6667 1.01562 1.2396 2.04688 1.7187C10.0781 23.7604 11.3854 24 12.9688 24c1.3958 0 2.6979-.2448 3.9062-.7344 1.2083-.4896 2.2396-1.1406 3.0938-1.9531.8541-.8125 1.5885-1.7396 2.2031-2.7813.6146-1.0416 1.0729-2.1197 1.375-3.2343C23.849 14.1823 24 13.0833 24 12c0-.0417.125-.1302.375-.2656s.5417-.3177.875-.5469c.3333-.2292.5833-.4687.75-.7187-1.125 0-1.875.0208-2.25.0624.7292-.4374 1.2812-1.2812 1.6562-2.5312z" 
      fill="#fff" 
      fill-opacity=".6" 
    />
  </symbol>
</svg>