<svg display="none" xmlns="http://www.w3.org/2000/svg">
  <symbol id="logo" viewBox="0 0 163 35">
    <g clip-path="url(#clip0)">
      <path 
        fill-rule="evenodd" 
        clip-rule="evenodd"
        d="M-.151.702v33.6h13.532c2.1814.0533 4.3499-.348 6.3677-1.1785a15.72192 15.72192 0 005.3523-3.6455 16.45892 16.45892 0 003.5751-5.5083 16.45732 16.45732 0 001.1369-6.4677c.0594-2.2104-.3273-4.41-1.1369-6.4677a16.45896 16.45896 0 00-3.5751-5.50831 15.72371 15.72371 0 00-5.3524-3.6452A15.72334 15.72334 0 0013.381.70199H-.151zM7.582 26.91V8.09099h5.8a8.64566 8.64566 0 013.521.59796 8.6463 8.6463 0 012.979 1.97005 9.40816 9.40816 0 011.9329 3.1695 9.40762 9.40762 0 01.5561 3.6705 9.40578 9.40578 0 01-.5561 3.6705 9.40497 9.40497 0 01-1.9329 3.1695 8.64243 8.64243 0 01-2.9788 1.9704 8.64324 8.64324 0 01-3.5212.5976h-5.8v.003zm34.8-5.952h12.082v-7.3H42.378V8.09099h13.291v-7.389H34.645V34.302H55.91V26.91H42.378v-5.952h.004zm36.343 13.344L89.744.702h-8.458l-7.491 24.72L66.304.702h-8.457l11.019 33.6h9.859zm14.4 0h7.733V.702h-7.733v33.6zm38.615-1.416c2.493-1.312 4.581-3.2784 6.041-5.688l-6.67-3.84a7.48124 7.48124 0 01-3.165 3.024 9.87276 9.87276 0 01-4.664 1.1 9.5941 9.5941 0 01-3.874-.6185c-1.235-.4708-2.36-1.1917-3.303-2.1175-.91-.9669-1.616-2.1067-2.077-3.3518-.46-1.245-.666-2.57-.605-3.8962-.061-1.3262.145-2.6512.605-3.8963.461-1.245 1.167-2.3849 2.077-3.3517.943-.92578 2.068-1.64667 3.303-2.11748a9.59446 9.59446 0 013.874-.61853c1.611-.02301 3.204.34773 4.639 1.08a7.58889 7.58889 0 013.19 3.04801l6.67-3.84001c-1.487-2.40453-3.59-4.36821-6.09-5.688-2.582-1.3931-5.475-2.1113-8.409-2.088-9.779-.272-17.797 7.691-17.591 17.47201-.208 9.781 7.809 17.747 17.588 17.476 2.95.0272 5.859-.691 8.458-2.088h.003zm17.881-11.928h12.082v-7.3h-12.085V8.09099h13.29v-7.389h-21.023V34.302h21.265V26.91h-13.532v-5.952h.003z"
      />
    </g>
    <defs>
      <clipPath id="clip0">
        <path d="M0 0h163v35H0z" />
      </clipPath>
    </defs>
  </symbol>
</svg>